PathFileType	3	(X/Y/Z)	RCH0000002 BBF 12.c3d
DataRate	CameraRate	NumFrames	NumMarkers	Units	OrigDataRate	OrigDataStartFrame	OrigNumFrames
100.0	100.0	17	23	mm	100.0	413	406
Frame#	Time	T10			RPSI			LPAT			LANK			LMED			LTOE			RPAT			RKNE			RANK			RMED			RTOE			LKNE			RHEE			RASI			MAN			LHEE			LASI			T2			LPSI			RTHI			LTHI			RTIB			LTIB			
		X1	Y1	Z1	X2	Y2	Z2	X3	Y3	Z3	X4	Y4	Z4	X5	Y5	Z5	X6	Y6	Z6	X7	Y7	Z7	X8	Y8	Z8	X9	Y9	Z9	X10	Y10	Z10	X11	Y11	Z11	X12	Y12	Z12	X13	Y13	Z13	X14	Y14	Z14	X15	Y15	Z15	X16	Y16	Z16	X17	Y17	Z17	X18	Y18	Z18	X19	Y19	Z19	X20	Y20	Z20	X21	Y21	Z21	X22	Y22	Z22	X23	Y23	Z23	

413	4.120	575.30078	-55.99471	786.18303	561.18668	-102.72326	696.00277	724.26255	-34.00958	384.42238	639.08301	51.02371	71.93790	628.70795	-18.55737	89.18044	680.75841	6.89026	67.79917	636.93617	-111.98556	344.57577	575.74848	-155.87276	327.54965	407.74012	-144.13488	107.86366	407.06109	-79.14264	131.85185	426.75975	-100.11464	71.45824	694.19706	29.06991	341.54599	392.25330	-120.18355	165.68183	667.85327	-165.36804	649.04845	694.58698	-21.91277	959.16293	593.58994	18.95246	103.56146	679.82654	10.76827	645.71541	552.89165	-30.90568	975.17524	564.49214	-32.05512	692.84162	607.57188	-230.11937	431.49695	676.55836	98.93048	465.30900	501.41142	-218.21628	232.39774	684.03209	100.97674	229.61260	
414	4.130	583.20330	-58.04640	786.84216	569.40383	-104.17056	695.85169	726.78356	-30.52241	384.32701	639.65949	52.94911	72.10250	629.27479	-16.48306	90.01622	681.18924	8.68343	68.00077	650.99279	-111.53119	343.28505	589.74660	-155.32207	325.89042	418.70457	-144.67314	109.12608	418.48444	-79.54127	132.70527	436.82303	-100.97753	71.88388	695.60000	32.28115	342.07643	404.54124	-120.39898	167.09205	677.24981	-164.00168	647.72682	701.80577	-20.74957	959.39808	594.19850	21.18394	104.28440	685.90945	12.52905	647.01879	560.22497	-31.28291	975.57410	571.38261	-33.33358	693.96878	620.15407	-229.36125	430.40772	679.23274	101.56285	466.30185	514.60160	-218.13743	232.37279	684.93255	103.85912	229.53873	
415	4.140	590.91610	-59.85684	787.69495	577.49459	-105.34950	695.97270	728.89883	-27.46770	384.23575	639.85368	54.14624	72.28148	629.80927	-15.15177	90.76480	681.49210	9.99634	68.22564	664.98167	-110.88070	342.62853	603.77158	-154.71928	324.74527	430.53331	-145.42195	110.33063	430.61663	-80.14034	133.48169	448.02921	-102.06850	72.41277	696.54908	35.09052	342.55826	417.30557	-120.81707	168.32752	686.42497	-162.52112	646.80494	708.85365	-19.71417	959.81736	594.54363	22.42780	104.91886	691.85352	14.32459	648.35776	567.44081	-31.77611	976.18988	578.19923	-34.37253	695.22799	632.70101	-228.53860	429.83798	681.65594	103.93012	467.18073	528.20828	-218.12930	232.66576	685.02198	106.22558	229.47436	
416	4.150	598.44838	-61.39318	788.70149	585.46179	-106.26564	696.35029	730.64688	-24.89346	384.12953	639.65738	54.62102	72.47220	630.29425	-14.56343	91.40944	681.64706	10.82351	68.45375	678.89844	-110.01106	342.61380	617.81796	-154.04821	324.12199	443.18839	-146.37648	111.47243	443.40539	-80.93390	134.18475	460.35631	-103.37415	73.04952	697.10278	37.44345	342.97054	430.48713	-121.43456	169.39591	695.37569	-160.94900	646.28019	715.73982	-18.80589	960.40418	594.62398	22.69132	105.46505	697.67668	16.12447	649.69050	574.54332	-32.34449	976.98940	584.95657	-35.18001	696.58719	645.20783	-227.64995	429.78286	683.85910	105.98855	467.91410	542.21682	-218.17618	233.27443	684.34272	108.03441	229.41699	
417	4.160	605.80862	-62.64052	789.81976	593.30587	-106.94242	696.95672	732.09145	-22.79634	384.00398	639.10961	54.44474	72.68255	630.72813	-14.65056	91.95432	681.65696	11.20258	68.67581	692.75809	-108.91037	343.22423	631.90216	-153.29714	324.00669	456.61703	-147.52242	112.56111	456.79236	-81.90685	134.83023	473.74853	-104.87102	73.80483	697.34460	39.33074	343.31276	444.03830	-122.23771	170.32084	704.10542	-159.30709	646.13173	722.47942	-18.02056	961.13253	594.47331	22.07273	105.94205	703.38737	17.90280	650.98278	581.54168	-32.94820	977.93595	591.65903	-35.78189	698.01079	657.69263	-226.69501	430.21805	685.87387	107.72434	468.49713	556.61741	-218.25956	234.18657	683.00776	109.29555	229.37574	
418	4.170	613.00379	-63.60172	791.00755	601.02479	-107.41717	697.75284	733.31445	-21.12802	383.86301	638.28632	53.73867	72.92429	631.12205	-15.29308	92.41825	681.54458	11.20499	68.88968	706.58980	-107.57947	344.42290	646.05771	-152.46043	324.36787	470.75348	-148.83839	113.62055	470.71543	-83.03764	135.44540	488.11971	-106.52871	74.69581	697.37262	40.78436	343.59753	457.92328	-123.20515	171.14007	712.62269	-157.61536	646.32236	729.09260	-17.35143	961.96811	594.15209	20.74055	106.37956	708.98546	19.63883	652.20824	588.44942	-33.55118	978.99129	598.30174	-36.21786	699.46026	670.19211	-225.67505	431.10456	687.72990	109.15060	468.94543	571.40238	-218.36052	235.38335	681.18202	110.06406	229.36463	
419	4.180	620.03933	-64.29566	792.22402	608.61451	-107.73620	698.68982	734.40697	-19.80706	383.71311	637.28602	52.65450	73.20769	631.49546	-16.33761	92.82798	681.34701	10.92426	69.09700	720.43105	-106.03194	346.15746	660.32911	-151.53927	325.16131	485.52191	-150.29881	114.68643	485.11088	-84.30118	136.06643	503.35970	-108.31352	75.74485	697.28870	41.86830	343.84341	472.11637	-124.31112	171.90192	720.93958	-155.89128	646.80116	735.60331	-16.79023	962.86992	593.73618	18.90663	106.81006	714.46424	21.31697	653.34805	595.28356	-34.12350	980.11740	604.87247	-36.53641	700.89507	682.75495	-224.59302	432.39389	689.45372	110.30154	469.28758	586.56323	-218.46203	236.84282	679.05896	110.42910	229.39686	
420	4.190	626.91966	-64.75451	793.43090	616.06983	-107.94978	699.71173	735.45972	-18.73370	383.55927	636.21415	51.35369	73.53805	631.87094	-17.61842	93.21192	681.10876	10.46331	69.30039	734.32175	-104.29278	348.36540	674.76472	-150.54147	326.33508	500.84010	-151.87647	115.80195	499.91589	-85.67166	136.73411	519.34298	-110.19208	76.97714	697.18891	42.66648	344.06916	486.59921	-125.52856	172.65999	729.07024	-154.14979	647.50689	742.03800	-16.32821	963.79248	593.30487	16.79698	107.26243	719.81317	22.92642	654.38990	602.06356	-34.64291	981.27784	611.35449	-36.78954	702.27424	695.43355	-223.45372	434.03291	691.06893	111.22511	469.55766	602.08765	-218.55061	238.54277	676.83625	110.49984	229.48084	
421	4.200	633.64908	-65.02014	794.59334	623.38556	-108.10737	700.75878	736.55398	-17.80531	383.40272	635.16857	49.98846	73.91417	632.26942	-18.97709	93.59518	680.87455	9.92261	69.50161	748.29870	-102.39637	350.97933	689.40955	-149.48056	327.83439	516.62396	-153.54477	117.01220	515.07125	-87.12464	137.48835	535.93873	-112.13452	78.41713	697.15569	43.26975	344.28966	501.35775	-126.83129	173.46702	737.02961	-152.40344	648.37184	748.42440	-15.95725	964.68824	592.93018	14.62467	107.75755	725.02118	24.46035	655.32675	608.81023	-35.09579	982.43874	617.72963	-37.02777	703.55821	708.27495	-222.26390	435.96802	692.59755	111.97515	469.78883	617.95692	-218.61737	240.46303	674.69358	110.39080	229.61817	
422	4.210	640.23294	-65.14027	795.68052	630.55769	-108.25355	701.77098	737.75441	-16.92981	383.24026	634.22816	48.68663	74.32858	632.70654	-20.27841	93.99612	680.68315	9.39028	69.70052	762.39087	-100.38405	353.93178	704.29852	-148.37439	329.60577	532.79258	-155.27917	118.35798	530.52456	-88.63849	138.36216	553.02092	-114.11672	80.08437	697.25240	43.76405	344.51385	516.38000	-128.19521	174.36843	744.83230	-150.66305	649.32585	754.79029	-15.67058	965.51015	592.66868	12.56801	108.30609	730.07973	25.91493	656.15551	615.54480	-35.47722	983.56956	623.98154	-37.29583	704.71104	721.31194	-221.03258	438.14820	694.06163	112.60427	470.00859	634.14390	-218.65836	242.58676	672.77517	110.20829	229.80349	
423	4.220	646.67881	-65.16451	796.66610	637.58460	-108.42506	702.69195	739.10433	-16.03537	383.06488	633.44574	47.54188	74.76887	633.19042	-21.42109	94.42481	680.56284	8.93534	69.89497	776.61572	-98.30166	357.15945	719.45093	-147.24357	331.60048	549.27324	-157.05794	119.86985	546.23331	-90.19472	139.37620	570.47773	-116.12140	81.98956	697.52011	44.22158	344.74434	531.65469	-129.59858	175.39638	752.49187	-148.93833	650.30023	761.16268	-15.46345	966.21423	592.55669	10.75648	108.90819	734.98572	27.28820	656.87580	622.28812	-35.79034	984.64340	630.09841	-37.62937	705.70254	734.55541	-219.77154	440.52699	695.48445	113.15837	470.23598	650.61194	-218.67429	244.90089	671.17850	110.04009	230.02562	
424	4.230	652.99732	-65.14067	797.52859	644.46793	-108.64884	703.47248	740.62404	-15.07522	382.86709	632.84552	46.60988	75.21976	633.72105	-22.34240	94.88299	680.52899	8.60420	70.08110	790.97665	-96.19723	360.60668	734.86652	-146.10999	333.77702	566.00605	-158.86208	121.56327	562.16754	-91.77763	140.53457	588.21898	-118.13778	84.13133	697.97689	44.69556	344.97831	547.17119	-131.02157	176.56506	760.02030	-147.23874	651.23148	767.56707	-15.33337	966.76171	592.60880	9.26515	109.55480	739.74354	28.57916	657.48891	629.06020	-36.04524	985.63735	636.07513	-38.05288	706.51023	747.98926	-218.49580	443.06340	696.89070	113.67337	470.48064	667.31493	-218.66976	247.39556	669.95006	109.94913	230.26971	
425	4.240	659.20271	-65.11178	798.25166	651.21308	-108.94130	704.07350	742.31206	-14.02777	382.63650	632.42500	45.91007	75.66533	634.29119	-23.01717	95.36548	680.58386	8.42055	70.25416	805.46161	-94.11885	364.22784	750.52365	-144.99553	336.10268	582.94733	-160.67471	123.43529	578.31165	-93.37330	141.82260	606.18093	-120.16013	86.49437	698.61931	45.21890	345.20923	562.92021	-132.44547	177.86778	767.42775	-145.57408	652.06431	774.02708	-15.28012	967.12082	592.81957	8.11722	110.23014	744.36625	29.78686	657.99709	635.87996	-36.25734	986.53248	641.91450	-38.57883	707.12064	761.56849	-217.22395	445.72200	698.30576	114.17411	470.74364	684.19847	-218.65218	250.06264	669.08801	109.97170	230.51976	
426	4.250	665.31294	-65.11369	798.82434	657.82939	-109.30856	704.46815	744.14893	-12.89288	382.36349	632.16035	45.43182	76.09102	634.88825	-23.45213	95.86233	680.71824	8.38788	70.40936	820.04290	-92.11263	367.98869	766.37950	-143.92115	338.55413	600.07151	-162.48002	125.46323	594.66472	-94.96823	143.20688	624.32817	-122.18533	89.04908	699.42607	45.80594	345.42891	578.89489	-133.85181	179.27600	774.72259	-143.95501	652.75401	780.56434	-15.30559	967.26807	593.16747	7.29299	110.91483	748.87581	30.90985	658.40317	642.76527	-36.44562	987.31399	647.62754	-39.20807	707.52999	775.22102	-215.97816	448.47245	699.75430	114.67520	471.01947	701.20217	-218.63056	252.89352	668.55062	110.11953	230.76100	
427	4.260	671.34925	-65.17362	799.24119	664.32976	-109.74768	704.64284	746.10283	-11.68585	382.04056	632.01401	45.14352	76.48523	635.49707	-23.67711	96.36142	680.91462	8.49402	70.54268	834.67788	-90.22095	371.86633	782.37217	-142.90623	341.11690	617.37103	-164.26207	127.60538	611.23945	-96.54799	144.63730	642.65221	-124.20996	91.75273	700.36338	46.45644	345.62957	595.09188	-135.22169	180.74059	781.91161	-142.39319	653.26791	787.19851	-15.41331	967.18877	593.62037	6.74306	111.58918	753.30235	31.94592	658.71047	649.73311	-36.63084	987.97112	653.23290	-39.93114	707.74398	788.85309	-214.78351	451.28870	701.25890	115.18298	471.29881	718.26266	-218.61424	255.87624	668.26900	110.38493	230.98186	
428	4.270	677.33543	-65.30961	799.50234	670.73011	-110.24845	704.59696	748.13609	-10.43075	381.66338	631.94323	45.00271	76.84050	636.10273	-23.73491	96.85100	681.15112	8.71652	70.65149	849.31069	-88.48100	375.84773	798.42421	-141.96822	343.78406	634.85426	-166.00366	129.80342	628.05962	-98.09612	146.05092	661.16731	-126.22754	94.55176	701.39168	47.16046	345.80553	611.51182	-136.53549	182.19485	789.00043	-140.90125	653.58589	793.94745	-15.60790	966.87716	594.14157	6.40308	112.23629	757.68263	32.89206	658.92291	656.79988	-36.83389	988.49723	658.75552	-40.73049	707.77673	802.35732	-213.66671	454.14809	702.83939	115.69808	471.57120	735.31698	-218.61179	258.99248	668.16201	110.74750	231.17533	
429	4.280	683.29679	-65.53067	799.61331	677.04848	-110.79570	704.34156	750.21185	-9.15456	381.23124	631.90807	44.96568	77.15400	636.69314	-23.67151	97.32173	681.40560	9.02818	70.73496	863.87459	-86.92370	379.92696	814.44702	-141.12237	346.55375	652.54182	-167.68563	131.98630	645.15628	-99.59359	147.37679	679.90394	-128.22617	97.38484	702.47278	47.90319	345.95429	628.15918	-137.77304	183.55912	795.99407	-139.49241	653.69992	800.82749	-15.89455	966.33579	594.69555	6.20758	112.84442	762.05790	33.74466	659.04531	663.98161	-37.07439	988.88959	664.22487	-41.58315	707.64904	815.62256	-212.65431	457.03038	704.51341	116.21784	471.82748	752.30576	-218.63019	262.21484	668.15111	111.18106	231.33952	
